<svg
  xmlns="http://www.w3.org/2000/svg"
  width="1200"
  height="630"
  viewBox="0 0 1200 630"
  fill="none"
>
  <defs>
    <linearGradient id="bg" x1="0" y1="0" x2="1200" y2="630" gradientUnits="userSpaceOnUse">
      <stop offset="0" stop-color="#f0fdf4" />
      <stop offset="1" stop-color="#dcfce7" />
    </linearGradient>
    <filter id="shadow" x="-50%" y="-50%" width="200%" height="200%">
      <feDropShadow dx="0" dy="12" stdDeviation="18" flood-color="#14532d" flood-opacity="0.15" />
    </filter>
  </defs>

  <rect width="1200" height="630" fill="url(#bg)" />

  <circle cx="600" cy="300" r="210" fill="#f8fffb" stroke="#bbf7d0" stroke-width="6" />

  <g
    transform="translate(600 300) scale(14) translate(-12 -12)"
    stroke="#16a34a"
    stroke-width="2"
    stroke-linecap="round"
    stroke-linejoin="round"
    fill="none"
    filter="url(#shadow)"
  >
    <path
      d="M14 9.536V7a4 4 0 0 1 4-4h1.5a.5.5 0 0 1 .5.5V5a4 4 0 0 1-4 4 4 4 0 0 0-4 4c0 2 1 3 1 5a5 5 0 0 1-1 3"
    />
    <path d="M4 9a5 5 0 0 1 8 4 5 5 0 0 1-8-4" />
    <path d="M5 21h14" />
  </g>

  <text
    x="600"
    y="520"
    text-anchor="middle"
    font-family="Inter, system-ui, -apple-system, Segoe UI, sans-serif"
    font-size="48"
    font-weight="700"
    fill="#0f172a"
  >
    Learned Growth
  </text>
</svg>
